<svg width="113.4" height="113.4" xmlns="http://www.w3.org/2000/svg"><style>.st0{opacity:.15}.st1{fill:#9c9e9f}</style><title>background</title><path id="canvas_background" fill="none" d="M-1-1h115.4v115.4H-1z"/><title>Layer 1</title><g stroke="null" id="cl_2"><g id="svg_1"><path class="st1" d="M68.61 53.035c-.727 0-1.325-.568-1.325-1.259s.598-1.259 1.326-1.259c.728 0 1.326.568 1.326 1.26 0 .69-.598 1.258-1.326 1.258z" id="svg_2"/><path class="st1" d="M38.108 74.45a.834.834 0 0 1-.555-.214.714.714 0 0 1 0-1.045l35.763-33.953a.809.809 0 0 1 1.1 0 .714.714 0 0 1 0 1.045L38.655 74.236a.796.796 0 0 1-.546.214z" id="svg_3"/><g id="svg_4"><path class="st1" d="M40.196 68.584l1.56-1.48h-1.542c-.668 0-1.214-.52-1.214-1.153V49.004c0-.634.546-1.152 1.214-1.152H47.9c.71 0 1.37-.338 1.76-.889l2.408-3.414a.454.454 0 0 1 .382-.19h8.804a.45.45 0 0 1 .372.19l2.037 2.756 1.118-1.061-1.863-2.559a2.064 2.064 0 0 0-1.656-.814h-8.804c-.676 0-1.3.32-1.672.847l-2.41 3.414a.569.569 0 0 1-.467.239h-7.695c-1.526 0-2.773 1.185-2.773 2.633V65.95c0 1.448 1.239 2.625 2.755 2.633z" id="svg_5"/><path class="st1" d="M73.377 46.37h-3.163l-1.56 1.482h4.723c.667 0 1.213.518 1.213 1.152V65.95c0 .634-.546 1.152-1.213 1.152h-25l-1.56 1.481h26.56c1.525 0 2.773-1.185 2.773-2.633V49.004c0-1.457-1.248-2.633-2.773-2.633z" id="svg_6"/></g><g id="svg_7"><path class="st1" d="M50.63 58.679a5.836 5.836 0 0 1-.364-2.024c0-3.406 2.911-6.17 6.499-6.17a6.75 6.75 0 0 1 2.132.345l1.196-1.135a8.31 8.31 0 0 0-3.337-.683c-4.445 0-8.059 3.43-8.059 7.651 0 1.127.26 2.197.72 3.167l1.213-1.151z" id="svg_8"/><path class="st1" d="M62.476 53.71a5.87 5.87 0 0 1 .788 2.937c0 3.406-2.911 6.17-6.499 6.17a6.706 6.706 0 0 1-3.094-.749l-1.144 1.086a8.35 8.35 0 0 0 4.238 1.144c4.445 0 8.059-3.431 8.059-7.651a7.34 7.34 0 0 0-1.204-4.024l-1.144 1.086z" id="svg_9"/></g></g></g></svg>