<svg width="113.4" height="113.4" xmlns="http://www.w3.org/2000/svg"><style>.st0{fill:#444}</style><title>background</title><path fill="none" id="canvas_background" d="M-1-1h582v402H-1z"/><title>Layer 1</title><g stroke="null" id="svg_1"><g id="svg_2"><path id="svg_3" d="M44.227 39.6v21.454h24.946V39.6H44.227zm24.114.82v13.82l-6.844-5.995-5.756 5.679-3.902-3.345-6.844 5.995V40.42H68.34zM45.06 60.234v-2.588l6.844-5.994 6.588 5.553.512-.631-2.623-2.209 5.181-5.11 6.844 5.994v4.985H45.06z" class="st0"/><path id="svg_4" d="M55.485 48.308c1.343 0 2.43-1.073 2.43-2.398 0-1.325-1.087-2.398-2.43-2.398s-2.43 1.136-2.43 2.461c0 1.262 1.086 2.335 2.43 2.335zm0-3.976c.895 0 1.599.695 1.599 1.578s-.704 1.577-1.6 1.577-1.598-.694-1.598-1.577.703-1.578 1.599-1.578z" class="st0"/></g><g id="svg_5"><path id="svg_6" d="M35.848 68.563s.064 0 0 0c.064 0 .064.063.128.063l.064.063 3.006 3.912v-4.037h.64v5.174h-.512c-.064 0-.064-.063-.128-.126L36.04 69.7v4.038h-.64v-5.174h.448z" class="st0"/><path id="svg_7" d="M45.826 71.15c0 .378-.064.757-.192 1.073-.128.315-.32.63-.511.82s-.512.442-.832.568c-.32.126-.64.189-1.023.189-.384 0-.768-.063-1.024-.19-.32-.125-.576-.315-.831-.567s-.384-.505-.512-.82a2.912 2.912 0 0 1-.192-1.073c0-.379.064-.757.192-1.073.128-.315.32-.63.512-.82s.511-.442.831-.568.64-.19 1.024-.19c.383 0 .767.064 1.023.19.32.126.576.315.832.568s.383.505.511.82c.128.316.192.694.192 1.073zm-.703 0c0-.316-.064-.631-.128-.884s-.192-.441-.384-.63a1.512 1.512 0 0 0-.576-.38c-.256-.062-.512-.125-.767-.125-.256 0-.512.063-.768.126s-.448.252-.576.378-.256.379-.383.631c-.064.253-.128.568-.128.884s.064.63.128.883.191.442.383.631c.192.19.384.316.576.379.256.063.512.126.768.126.255 0 .511-.063.767-.126s.448-.253.576-.379c.192-.19.256-.378.384-.63.064-.253.128-.569.128-.884z" class="st0"/><path id="svg_8" d="M50.112 68.563v.568h-1.727v4.606h-.704V69.13h-1.663v-.568h4.094z" class="st0"/><path id="svg_9" d="M55.805 68.563v.568H53.31v1.83h2.175v.567H53.31v2.209h-.704v-5.174h3.199z" class="st0"/><path id="svg_10" d="M61.497 71.15c0 .378-.064.757-.192 1.073-.128.315-.32.63-.511.82s-.512.442-.832.568c-.32.126-.64.189-1.023.189s-.768-.063-1.024-.19c-.32-.125-.575-.315-.831-.567-.256-.253-.384-.505-.512-.82a2.912 2.912 0 0 1-.192-1.073c0-.379.064-.757.192-1.073.128-.315.32-.63.512-.82.256-.253.511-.442.831-.568.32-.126.64-.19 1.024-.19s.767.064 1.023.19c.32.126.576.315.832.568s.383.505.511.82c.128.316.192.694.192 1.073zm-.767 0c0-.316-.064-.631-.128-.884-.064-.252-.192-.441-.384-.63a1.512 1.512 0 0 0-.576-.38c-.256-.062-.511-.125-.767-.125s-.512.063-.768.126-.448.252-.575.378c-.192.19-.256.379-.384.631-.064.253-.128.568-.128.884s.064.63.128.883.192.442.384.631c.191.19.383.316.575.379.256.063.512.126.768.126s.511-.063.767-.126.448-.253.576-.379c.192-.19.256-.378.384-.63.128-.253.128-.569.128-.884z" class="st0"/><path id="svg_11" d="M64.504 73.169c.191 0 .383-.063.575-.126.192-.063.32-.19.448-.316s.192-.315.256-.441c.064-.19.064-.379.064-.568v-3.155h.703v3.155c0 .315-.064.568-.127.82-.064.252-.256.505-.384.631-.192.19-.384.315-.64.442a2.07 2.07 0 0 1-.895.189c-.32 0-.64-.063-.896-.19a2.298 2.298 0 0 1-.64-.441c-.191-.19-.32-.379-.383-.631-.064-.252-.128-.505-.128-.82v-3.155h.703v3.155c0 .189 0 .441.064.568.064.189.128.315.256.441.128.127.256.253.448.316.192.126.384.126.576.126z" class="st0"/><path id="svg_12" d="M68.341 68.563c.064 0 .064.063.128.063l.064.063L71.54 72.6v-4.036h.64v5.174h-.512c-.064 0-.064-.063-.128-.126L68.533 69.7v4.038h-.64v-5.174h.448z" class="st0"/><path id="svg_13" d="M78 71.15c0 .378-.064.757-.192 1.073-.128.315-.32.567-.512.82-.255.252-.511.378-.831.505a2.69 2.69 0 0 1-1.024.189H73.46v-5.174h1.982c.384 0 .768.063 1.024.189.32.126.576.316.831.505.256.252.384.505.512.82.128.316.192.694.192 1.073zm-.768 0c0-.316-.064-.631-.127-.82-.064-.253-.192-.442-.384-.631a1.512 1.512 0 0 0-.576-.38c-.256-.062-.512-.125-.768-.125h-1.215v4.038h1.215c.256 0 .512-.063.768-.126s.448-.252.576-.379c.192-.189.256-.378.384-.63.127-.316.127-.632.127-.947z" class="st0"/></g></g></svg>